<?xml version="1.0" encoding="utf-8"?>
<!-- Generator: Adobe Illustrator 25.4.1, SVG Export Plug-In . SVG Version: 6.00 Build 0)  -->
<svg version="1.1" id="Layer_1" xmlns="http://www.w3.org/2000/svg" xmlns:xlink="http://www.w3.org/1999/xlink" x="0px" y="0px"
	 viewBox="0 0 64 64" enable-background="new 0 0 64 64" xml:space="preserve">
<g>
	<g>
		<path fill="#223D2D" stroke="#223D2D" stroke-width="0.9129" stroke-miterlimit="10" d="M15.8,20l0.1,42.5l5.9-5.8l-0.1-35.1
			c0-5.2,3.5-9.9,8.7-11.2c6.2-1.6,12.5,2.1,14.1,8.3c1.6,6.2-2.1,12.5-8.3,14.1c-3,0.8-6.1,0.3-8.6-1.1l0,6.6
			c3.2,1.1,6.6,1.3,10.1,0.4c9.4-2.4,15-12.1,12.6-21.5S38.3,2,28.9,4.5C21.5,6.4,16.4,12.8,15.8,20z"/>
		<circle fill="#223D2D" stroke="#223D2D" stroke-width="0.9129" stroke-miterlimit="10" cx="33.3" cy="21.6" r="5.8"/>
	</g>
	<g>
		<path fill="#2B8641" stroke="#2B8641" stroke-width="0.9129" stroke-miterlimit="10" d="M17.5,18.5L17.6,61l5.9-5.8L23.5,20
			c0-5.2,3.5-9.9,8.7-11.2c6.2-1.6,12.5,2.1,14.1,8.3c1.6,6.2-2.1,12.5-8.3,14.1c-3,0.8-6.1,0.3-8.6-1.1l0,6.6
			c3.2,1.1,6.6,1.3,10.1,0.4c9.4-2.4,15-12.1,12.6-21.5S40.1,0.5,30.6,3C23.2,4.9,18.2,11.3,17.5,18.5z"/>
		<circle fill="#2B8641" stroke="#2B8641" stroke-width="0.9129" stroke-miterlimit="10" cx="35" cy="20.1" r="5.8"/>
	</g>
	<g>
		<path fill="#A5CE39" stroke="#A5CE39" stroke-width="0.9129" stroke-miterlimit="10" d="M19.3,17.4l0.1,42.5l5.9-5.8L25.3,19
			c0-5.2,3.5-9.9,8.7-11.2c6.2-1.6,12.5,2.1,14.1,8.3S46,28.6,39.8,30.2c-3,0.8-6.1,0.3-8.6-1.1l0,6.6c3.2,1.1,6.6,1.3,10.1,0.4
			c9.4-2.4,15-12.1,12.6-21.5c-2.4-9.4-12.1-15-21.5-12.6C25,3.9,19.9,10.2,19.3,17.4z"/>
		<circle fill="#A5CE39" stroke="#A5CE39" stroke-width="0.9129" stroke-miterlimit="10" cx="36.8" cy="19" r="5.8"/>
	</g>
</g>
</svg>
